<?xml version="1.0" encoding="utf-8"?>
<!-- Generator: Adobe Illustrator 18.1.1, SVG Export Plug-In . SVG Version: 6.00 Build 0)  -->
<svg version="1.1" id="Layer_1" xmlns="http://www.w3.org/2000/svg" xmlns:xlink="http://www.w3.org/1999/xlink" x="0px" y="0px"
	 viewBox="0 0 26 26" enable-background="new 0 0 26 26" xml:space="preserve">
<g>
	<path d="M7.1691389,21.3355865c0-0.1726475,0.0660911-0.3264103,0.1996222-0.4612904l7.8756409-7.8742914L7.3687611,5.1243644
		C7.23523,4.9908333,7.1691389,4.83707,7.1691389,4.663075c0-0.1739955,0.0660911-0.3277583,0.1996222-0.4599409
		l1.0021582-1.0035067C8.5044498,3.067445,8.6582136,3.000005,8.8322086,3.000005s0.3277578,0.06744,0.4599409,0.1996224
		l9.3390875,9.3390884c0.1335316,0.1335316,0.1996231,0.2872944,0.1996231,0.4612894
		c0,0.1726465-0.0660915,0.3264093-0.1996231,0.4612894l-9.3390875,9.3377399
		c-0.1321831,0.1335316-0.2859459,0.2009716-0.4599409,0.2009716s-0.3277588-0.06744-0.4612894-0.2009716L7.3687611,21.796875
		C7.23523,21.6633453,7.1691389,21.5095806,7.1691389,21.3355865z"/>
</g>
</svg>
