<?xml version="1.0" encoding="utf-8"?>
<!-- Generator: Adobe Illustrator 18.1.1, SVG Export Plug-In . SVG Version: 6.00 Build 0)  -->
<svg version="1.1" id="Layer_1" xmlns="http://www.w3.org/2000/svg" xmlns:xlink="http://www.w3.org/1999/xlink" x="0px" y="0px"
	 viewBox="0 0 26 26" enable-background="new 0 0 26 26" xml:space="preserve">
<g>
	<path d="M18.8308601,4.6644235c0,0.172646-0.0660896,0.3264093-0.1996212,0.4612894l-7.8756409,7.8742919l7.8756409,7.8756399
		c0.1335316,0.1335316,0.1996212,0.2872944,0.1996212,0.4612904c0,0.1739941-0.0660896,0.3277588-0.1996212,0.45994
		l-1.0021591,1.0035076c-0.1335297,0.1321831-0.2872944,0.1996212-0.4612885,0.1996212
		c-0.173996,0-0.3277588-0.0674381-0.4599419-0.1996212L7.368762,13.4612942
		c-0.1335311-0.1335316-0.1996222-0.2872944-0.1996222-0.4612894c0-0.1726465,0.0660911-0.3264093,0.1996222-0.4612894
		l9.3390875-9.3377399c0.1321831-0.1335311,0.2859459-0.2009711,0.4599419-0.2009711
		c0.1739941,0,0.3277588,0.06744,0.4612885,0.2009711l1.0021591,1.0021582
		C18.7647705,4.3366652,18.8308601,4.4904284,18.8308601,4.6644235z"/>
</g>
</svg>
