<?xml version="1.0" encoding="utf-8"?>
<!DOCTYPE svg PUBLIC "-//W3C//DTD SVG 1.1//EN" "http://www.w3.org/Graphics/SVG/1.1/DTD/svg11.dtd">
<svg version="1.1" xmlns="http://www.w3.org/2000/svg" xmlns:xlink="http://www.w3.org/1999/xlink" width="384" height="448" viewBox="0 0 384 448">
<path d="M377.75 264q0 1.25-0.25 1.75-16 67-67 108.625t-119.5 41.625q-36.5 0-70.625-13.75t-60.875-39.25l-32.25 32.25q-4.75 4.75-11.25 4.75t-11.25-4.75-4.75-11.25v-112q0-6.5 4.75-11.25t11.25-4.75h112q6.5 0 11.25 4.75t4.75 11.25-4.75 11.25l-34.25 34.25q17.75 16.5 40.25 25.5t46.75 9q33.5 0 62.5-16.25t46.5-44.75q2.75-4.25 13.25-29.25 2-5.75 7.5-5.75h48q3.25 0 5.625 2.375t2.375 5.625zM384 64v112q0 6.5-4.75 11.25t-11.25 4.75h-112q-6.5 0-11.25-4.75t-4.75-11.25 4.75-11.25l34.5-34.5q-37-34.25-87.25-34.25-33.5 0-62.5 16.25t-46.5 44.75q-2.75 4.25-13.25 29.25-2 5.75-7.5 5.75h-49.75q-3.25 0-5.625-2.375t-2.375-5.625v-1.75q16.25-67 67.5-108.625t120-41.625q36.5 0 71 13.875t61.25 39.125l32.5-32.25q4.75-4.75 11.25-4.75t11.25 4.75 4.75 11.25z"></path>
</svg>
