<?xml version="1.0" encoding="utf-8"?>
<!-- Generator: Adobe Illustrator 18.1.1, SVG Export Plug-In . SVG Version: 6.00 Build 0)  -->
<svg version="1.1" id="Layer_1" xmlns="http://www.w3.org/2000/svg" xmlns:xlink="http://www.w3.org/1999/xlink" x="0px" y="0px"
	 viewBox="0 0 26 26" enable-background="new 0 0 26 26" xml:space="preserve">
<g>
	<path d="M9.3074493,21.3074493c-0.2503061,0-0.466959-0.0904465-0.6499557-0.2734432
		c-0.1819458-0.1829987-0.2734442-0.3996506-0.2734442-0.6478539V14.197897l-6.9675727-0.7361965
		c-0.1135845-0.0189314-0.2124451-0.0694132-0.2944785-0.1514463C1.0399649,13.2282209,1,13.1293602,1,13.0157757v-0.0147238
		c0-0.2608242,0.1283085-0.4143734,0.3891324-0.4627523l6.9949169-1.0958805v-5.826468
		c0-0.2503071,0.0914984-0.466959,0.2734442-0.6499562c0.1829967-0.1829972,0.3996496-0.2734447,0.6499557-0.2734447
		c1.1821213,0,2.2475023,0.3765121,3.1940403,1.131639c0.9475899,0.7551274,1.4208593,1.6091151,1.4208593,2.5598602h7.3851004
		c0-0.4985104,0.1819458-0.9318147,0.5479412-1.2978091c0.3649426-0.3659949,0.7982464-0.5468888,1.2978077-0.5468888
		c0.5006142,0,0.9328671,0.1808939,1.2988605,0.5468888C24.8170033,7.4522347,25,7.8855391,25,8.3840494v9.2319021
		c0,0.5006123-0.1829967,0.9318142-0.5479412,1.2978077c-0.3659935,0.3659954-0.7982464,0.5489922-1.2988605,0.5489922
		c-0.4995613,0-0.9328651-0.1829967-1.2978077-0.5489922c-0.3659954-0.3659935-0.5479412-0.7971954-0.5479412-1.2978077H13.922349
		c0,0.9528484-0.4732695,1.8047314-1.4208593,2.5598583C11.5549517,20.9309387,10.4895706,21.3074493,9.3074493,21.3074493z
		 M14.3840494,11.6148996h6.4616995c0.1346188,0,0.2450485-0.0420685,0.3312893-0.1283092
		c0.0872917-0.0862398,0.1304111-0.1977205,0.1304111-0.3323393s-0.0431194-0.2461004-0.1304111-0.3323402
		c-0.0862408-0.0862408-0.1966705-0.1283083-0.3312893-0.1283083h-6.4616995c-0.1346188,0-0.2450485,0.0420675-0.3312883,0.1283083
		c-0.0872917,0.0862398-0.1304121,0.1977215-0.1304121,0.3323402s0.0431204,0.2460995,0.1304121,0.3323393
		C14.1390009,11.5728312,14.2494307,11.6148996,14.3840494,11.6148996z"/>
</g>
</svg>
