<?xml version="1.0" encoding="utf-8"?>
<!-- Generator: Adobe Illustrator 18.1.1, SVG Export Plug-In . SVG Version: 6.00 Build 0)  -->
<svg version="1.1" id="Layer_1" xmlns="http://www.w3.org/2000/svg" xmlns:xlink="http://www.w3.org/1999/xlink" x="0px" y="0px"
	 viewBox="0 0 26 26" enable-background="new 0 0 26 26" xml:space="preserve">
<path d="M24.458477,2.6768694c-0.4550877-0.4550831-1.0038662-0.6768705-1.6425457-0.6768705H3.3155911
	c-0.6386852,0-1.181726,0.2217873-1.6368092,0.6768705C1.2246714,3.13098,0.9999958,3.6711323,0.9999958,4.309813v17.642889
	c0,0.6386795,0.2246755,1.1940823,0.678786,1.6481915c0.4550833,0.4550838,0.998124,0.691143,1.6368092,0.691143h19.5003395
	c0.6386795,0,1.187458-0.2360592,1.6425457-0.691143c0.4541054-0.4541092,0.6845188-1.0095119,0.6845188-1.6481915V4.309813
	C25.1429958,3.6711323,24.9125824,3.13098,24.458477,2.6768694z M7.9999957,22.4410725H3.3155911
	c-0.1259806,0-0.2347596-0.0576611-0.3265584-0.1494598c-0.0917985-0.0917988-0.1380737-0.2119579-0.1380737-0.3389111V5.7019258
	h5.1490364V22.4410725z M9.9999962,5.7019258h6v16.7391472h-6V5.7019258z M23.2920322,21.9527016
	c0,0.1269531-0.0524998,0.2471123-0.1442986,0.3389111s-0.2058277,0.1494598-0.3318024,0.1494598h-4.8159351V5.7019258h5.2920361
	V21.9527016z"/>
</svg>
