<?xml version="1.0" encoding="utf-8"?>
<!DOCTYPE svg PUBLIC "-//W3C//DTD SVG 1.1//EN" "http://www.w3.org/Graphics/SVG/1.1/DTD/svg11.dtd">
<svg version="1.1" xmlns="http://www.w3.org/2000/svg" xmlns:xlink="http://www.w3.org/1999/xlink" width="352" height="448" viewBox="0 0 352 448">
<path d="M324.5 330.5q0 10-7 17l-34 34q-7 7-17 7t-17-7l-73.5-73.5-73.5 73.5q-7 7-17 7t-17-7l-34-34q-7-7-7-17t7-17l73.5-73.5-73.5-73.5q-7-7-7-17t7-17l34-34q7-7 17-7t17 7l73.5 73.5 73.5-73.5q7-7 17-7t17 7l34 34q7 7 7 17t-7 17l-73.5 73.5 73.5 73.5q7 7 7 17z"></path>
</svg>
