<?xml version="1.0" encoding="iso-8859-1"?>
<!-- Generator: Adobe Illustrator 17.1.0, SVG Export Plug-In . SVG Version: 6.00 Build 0)  -->
<!DOCTYPE svg PUBLIC "-//W3C//DTD SVG 1.1//EN" "http://www.w3.org/Graphics/SVG/1.1/DTD/svg11.dtd">
<svg version="1.1" xmlns="http://www.w3.org/2000/svg" xmlns:xlink="http://www.w3.org/1999/xlink" x="0px" y="0px"
	 viewBox="0 0 32 32" style="enable-background:new 0 0 32 32;" xml:space="preserve">
<style type="text/css">
	.warning{fill:#FF0000;}
</style>
<g id="warning">
	<path class="warning" d="M27.314,4.686c-6.249-6.249-16.379-6.249-22.627,0c-6.248,6.248-6.249,16.379,0,22.627
		c6.248,6.248,16.379,6.248,22.627,0C33.562,21.065,33.562,10.934,27.314,4.686z M7.515,24.485c-4.647-4.647-4.664-12.306,0-16.971
		c4.665-4.665,12.324-4.647,16.971,0c4.646,4.646,4.665,12.306,0,16.971C19.821,29.15,12.161,29.131,7.515,24.485z"/>
	<path class="warning" d="M24.485,4.686L4.686,24.485c0,0,2.74,2.74,2.828,2.828S27.314,7.515,27.314,7.515L24.485,4.686z"/>
</g>
<g id="Layer_2">
</g>
</svg>
