<?xml version="1.0" encoding="utf-8"?>
<!DOCTYPE svg PUBLIC "-//W3C//DTD SVG 1.1//EN" "http://www.w3.org/Graphics/SVG/1.1/DTD/svg11.dtd">
<svg version="1.1" xmlns="http://www.w3.org/2000/svg" xmlns:xlink="http://www.w3.org/1999/xlink" width="25" height="32" viewBox="0 0 25 32">
<path fill="#444444" d="M20.571 14.286v1.143q0 0.25-0.161 0.411t-0.411 0.161h-14.857q-0.25 0-0.411-0.161t-0.161-0.411v-1.143q0-0.25 0.161-0.411t0.411-0.161h14.857q0.25 0 0.411 0.161t0.161 0.411zM22.857 22.286v-14.857q0-1.179-0.839-2.018t-2.018-0.839h-14.857q-1.179 0-2.018 0.839t-0.839 2.018v14.857q0 1.179 0.839 2.018t2.018 0.839h14.857q1.179 0 2.018-0.839t0.839-2.018zM25.143 7.429v14.857q0 2.125-1.509 3.634t-3.634 1.509h-14.857q-2.125 0-3.634-1.509t-1.509-3.634v-14.857q0-2.125 1.509-3.634t3.634-1.509h14.857q2.125 0 3.634 1.509t1.509 3.634z"></path>
</svg>
