<?xml version="1.0" encoding="utf-8"?>
<!DOCTYPE svg PUBLIC "-//W3C//DTD SVG 1.1//EN" "http://www.w3.org/Graphics/SVG/1.1/DTD/svg11.dtd">
<svg version="1.1" xmlns="http://www.w3.org/2000/svg" xmlns:xlink="http://www.w3.org/1999/xlink" width="34" height="32" viewBox="0 0 34 32">
<path fill="#444444" d="M31.804 16.625q0-0.625-0.946-0.625h-19.429q-0.714 0-1.527 0.384t-1.277 0.938l-5.25 6.482q-0.321 0.429-0.321 0.714 0 0.625 0.946 0.625h19.429q0.714 0 1.536-0.393t1.268-0.946l5.25-6.482q0.321-0.393 0.321-0.696zM11.429 13.714h13.714v-2.857q0-0.714-0.5-1.214t-1.214-0.5h-10.286q-0.714 0-1.214-0.5t-0.5-1.214v-1.143q0-0.714-0.5-1.214t-1.214-0.5h-5.714q-0.714 0-1.214 0.5t-0.5 1.214v15.232l4.571-5.625q0.786-0.946 2.071-1.563t2.5-0.616zM34.089 16.625q0 1.107-0.821 2.143l-5.268 6.482q-0.768 0.946-2.071 1.563t-2.5 0.616h-19.429q-1.643 0-2.821-1.179t-1.179-2.821v-17.143q0-1.643 1.179-2.821t2.821-1.179h5.714q1.643 0 2.821 1.179t1.179 2.821v0.571h9.714q1.643 0 2.821 1.179t1.179 2.821v2.857h3.429q0.964 0 1.768 0.438t1.196 1.259q0.268 0.571 0.268 1.214z"></path>
</svg>
