<?xml version="1.0" encoding="utf-8"?>
<!-- Generator: Adobe Illustrator 18.1.1, SVG Export Plug-In . SVG Version: 6.00 Build 0)  -->
<svg version="1.1" id="Layer_1" xmlns="http://www.w3.org/2000/svg" xmlns:xlink="http://www.w3.org/1999/xlink" x="0px" y="0px"
	 viewBox="0 0 26 26" enable-background="new 0 0 26 26" xml:space="preserve">
<g>
	<path d="M14.9840841,13.0000048c0,0.173996-0.06744,0.3277588-0.2009706,0.4612894L5.445374,22.8003826
		c-0.1335311,0.1321831-0.2872944,0.1996231-0.4612894,0.1996231c-0.1739955,0-0.3277583-0.06744-0.4599409-0.1996231
		l-1.0021579-1.0035057c-0.1335313-0.1321831-0.2009711-0.2859459-0.2009711-0.4599419
		c0-0.1739941,0.0674398-0.3277588,0.2009711-0.4612885l7.8756399-7.8756418L3.5219858,5.1257133
		C3.3884544,4.9908333,3.3210146,4.83707,3.3210146,4.6644239c0-0.173995,0.0674398-0.3277583,0.2009711-0.4612894
		l1.0021579-1.0021582c0.1321826-0.1335311,0.2859454-0.2009711,0.4599409-0.2009711
		c0.173995,0,0.3277583,0.06744,0.4612894,0.2009711l9.3377399,9.337739
		C14.9166441,12.6735954,14.9840841,12.8273592,14.9840841,13.0000048z M22.6789856,13.0000048
		c0,0.173996-0.06744,0.3277588-0.1996212,0.4612894l-9.3390894,9.3390884
		c-0.1335306,0.1321831-0.2872934,0.1996231-0.4612894,0.1996231c-0.1726456,0-0.3264093-0.06744-0.45994-0.1996231
		l-1.0021582-1.0035057c-0.1335316-0.1321831-0.2009716-0.2859459-0.2009716-0.4599419
		c0-0.1739941,0.06744-0.3277588,0.2009716-0.4612885l7.8756399-7.8756418l-7.8756399-7.8742914
		c-0.1335316-0.1348801-0.2009716-0.2886434-0.2009716-0.4612894c0-0.173995,0.06744-0.3277583,0.2009716-0.4612894
		l1.0021582-1.0021582c0.1335306-0.1335311,0.2872944-0.2009711,0.45994-0.2009711
		c0.173996,0,0.3277588,0.06744,0.4612894,0.2009711l9.3390894,9.337739
		C22.6115456,12.6735954,22.6789856,12.8273592,22.6789856,13.0000048z"/>
</g>
</svg>
