<?xml version="1.0" encoding="utf-8"?>
<!-- Generator: Adobe Illustrator 18.1.1, SVG Export Plug-In . SVG Version: 6.00 Build 0)  -->
<svg version="1.1" id="Layer_1" xmlns="http://www.w3.org/2000/svg" xmlns:xlink="http://www.w3.org/1999/xlink" x="0px" y="0px"
	 viewBox="0 0 26 26" enable-background="new 0 0 26 26" xml:space="preserve">
<g>
	<path d="M21.3647461,14.4213896v4.6142569c0,1.1513672-0.4091797,2.1357422-1.2265625,2.9521484
		c-0.8173828,0.8183594-1.8007812,1.2265625-2.9521484,1.2265625H5.1147466c-1.1513674,0-2.1357424-0.4082031-2.9531252-1.2265625
		c-0.8173828-0.8164062-1.2255859-1.8007812-1.2255859-2.9521484V6.9643583c0-1.1503906,0.4082031-2.1347656,1.2255859-2.953125
		c0.8173828-0.8164065,1.8017578-1.2255862,2.9531252-1.2255862h12.0712891c0.609375,0,1.1748047,0.1210938,1.6972656,0.3623047
		c0.1455078,0.0683594,0.2324219,0.1796875,0.2617188,0.3339844c0.0283203,0.1650391-0.0146484,0.3046875-0.1308594,0.4208984
		l-0.7109375,0.7109377c-0.0966797,0.0966797-0.2080078,0.1455078-0.3339844,0.1455078
		c-0.0283203,0-0.0722656-0.0097656-0.1298828-0.0292969c-0.2226562-0.0585938-0.4404297-0.0869141-0.6533203-0.0869141H5.1147466
		c-0.6386719,0-1.1855471,0.2275391-1.6396487,0.6816406C3.0200198,5.779788,2.7934573,6.3256865,2.7934573,6.9643583v12.0712881
		c0,0.6386719,0.2265625,1.1845703,0.6816406,1.6396484c0.4541016,0.4550781,1.0009768,0.6816406,1.6396487,0.6816406h12.0712891
		c0.6386719,0,1.1845703-0.2265625,1.6396484-0.6816406c0.4541016-0.4550781,0.6816406-1.0009766,0.6816406-1.6396484v-3.6845694
		c0-0.1259766,0.0439453-0.2324219,0.1308594-0.3203125l0.9287109-0.9277344
		c0.0966797-0.0966797,0.2080078-0.1455078,0.3330078-0.1455078c0.0585938,0,0.1162109,0.0146484,0.1748047,0.0439453
		C21.2680664,14.0786161,21.3647461,14.2182646,21.3647461,14.4213896z M24.7163086,7.3276396L12.9057617,19.1372089
		c-0.2324219,0.2324219-0.5078125,0.3486328-0.8271484,0.3486328s-0.5947266-0.1162109-0.8271484-0.3486328l-6.2382808-6.2392569
		c-0.2324219-0.2314453-0.3486328-0.5078125-0.3486328-0.8261719c0-0.3193359,0.1162109-0.5957031,0.3486328-0.8271484
		l1.5957031-1.5966797c0.2324219-0.2314453,0.5078125-0.3476562,0.8271484-0.3476562s0.5947261,0.1162109,0.827148,0.3476562
		l3.8154297,3.8164062l9.3876953-9.3867188c0.2324219-0.2324221,0.5078125-0.3486331,0.8271484-0.3486331
		s0.5947266,0.1162109,0.8271484,0.3486331l1.5957031,1.5957031c0.2324219,0.2324219,0.3476562,0.5078125,0.3476562,0.8261719
		C25.0639648,6.8198271,24.9487305,7.0952177,24.7163086,7.3276396z"/>
</g>
</svg>
