<?xml version="1.0" encoding="utf-8"?>
<!DOCTYPE svg PUBLIC "-//W3C//DTD SVG 1.1//EN" "http://www.w3.org/Graphics/SVG/1.1/DTD/svg11.dtd">
<svg version="1.1" xmlns="http://www.w3.org/2000/svg" xmlns:xlink="http://www.w3.org/1999/xlink" width="32" height="32" viewBox="0 0 32 32">
<path fill="#444444" d="M13.482 18.857q0 0.232-0.179 0.411l-5.929 5.929 2.571 2.571q0.339 0.339 0.339 0.804t-0.339 0.804-0.804 0.339h-8q-0.464 0-0.804-0.339t-0.339-0.804v-8q0-0.464 0.339-0.804t0.804-0.339 0.804 0.339l2.571 2.571 5.929-5.929q0.179-0.179 0.411-0.179t0.411 0.179l2.036 2.036q0.179 0.179 0.179 0.411zM27.429 3.429v8q0 0.464-0.339 0.804t-0.804 0.339-0.804-0.339l-2.571-2.571-5.929 5.929q-0.179 0.179-0.411 0.179t-0.411-0.179l-2.036-2.036q-0.179-0.179-0.179-0.411t0.179-0.411l5.929-5.929-2.571-2.571q-0.339-0.339-0.339-0.804t0.339-0.804 0.804-0.339h8q0.464 0 0.804 0.339t0.339 0.804z"></path>
</svg>
