<?xml version="1.0" encoding="utf-8"?>
<!-- Generator: Adobe Illustrator 18.1.1, SVG Export Plug-In . SVG Version: 6.00 Build 0)  -->
<svg version="1.1" id="Layer_1" xmlns="http://www.w3.org/2000/svg" xmlns:xlink="http://www.w3.org/1999/xlink" x="0px" y="0px"
	 viewBox="0 0 26 26" enable-background="new 0 0 26 26" xml:space="preserve">
<g>
	<path d="M11.0159149,13.0000057c0-0.173995,0.06744-0.3277578,0.2009716-0.4612894l9.3377399-9.3390884
		c0.1335297-0.1321824,0.2872944-0.1996222,0.4612885-0.1996222c0.173996,0,0.3277588,0.0674398,0.45994,0.1996222
		L22.478014,4.203135c0.1335316,0.1321826,0.2009716,0.2859454,0.2009716,0.4599409
		c0,0.173995-0.06744,0.3277583-0.2009716,0.4612894l-7.8756409,7.8756404l7.8756409,7.8742924
		c0.1335316,0.1348801,0.2009716,0.2886429,0.2009716,0.4612885c0,0.173996-0.06744,0.3277588-0.2009716,0.4612904
		l-1.0021591,1.0021572c-0.1321812,0.1335316-0.285944,0.2009716-0.45994,0.2009716
		c-0.1739941,0-0.3277588-0.06744-0.4612885-0.2009716l-9.3377399-9.337739
		C11.0833549,13.3264151,11.0159149,13.1726522,11.0159149,13.0000057z M3.3210135,13.0000057
		c0-0.173995,0.06744-0.3277578,0.1996224-0.4612894l9.3390884-9.3390884
		c0.1335316-0.1321824,0.2872944-0.1996222,0.4612894-0.1996222c0.1726465,0,0.3264093,0.0674398,0.4599409,0.1996222
		l1.0021582,1.0035069c0.1335306,0.1321826,0.2009706,0.2859454,0.2009706,0.4599409
		c0,0.173995-0.06744,0.3277583-0.2009706,0.4612894l-7.8756409,7.8756404l7.8756409,7.8742924
		c0.1335306,0.1348801,0.2009706,0.2886429,0.2009706,0.4612885c0,0.173996-0.06744,0.3277588-0.2009706,0.4612904
		l-1.0021582,1.0021572c-0.1335316,0.1335316-0.2872944,0.2009716-0.4599409,0.2009716
		c-0.173995,0-0.3277578-0.06744-0.4612894-0.2009716l-9.3390884-9.337739
		C3.3884535,13.3264151,3.3210135,13.1726522,3.3210135,13.0000057z"/>
</g>
</svg>
