<?xml version="1.0" encoding="utf-8"?>
<!-- Generator: Adobe Illustrator 18.1.1, SVG Export Plug-In . SVG Version: 6.00 Build 0)  -->
<svg version="1.1" id="Layer_1" xmlns="http://www.w3.org/2000/svg" xmlns:xlink="http://www.w3.org/1999/xlink" x="0px" y="0px"
	 viewBox="0 0 26 26" enable-background="new 0 0 26 26" xml:space="preserve">
<g>
	<path d="M21.3647461,6.9643593v12.0712891c0,1.1513672-0.4091797,2.1357422-1.2265625,2.953125
		s-1.8007812,1.2255859-2.9521484,1.2255859H5.1147456c-1.1513669,0-2.1357419-0.4082031-2.9531248-1.2255859
		s-1.2255859-1.8017578-1.2255859-2.953125V6.9643593c0-1.1503906,0.4082031-2.1347656,1.2255859-2.9521484
		s1.8017578-1.2265627,2.9531248-1.2265627h12.0712891c1.1513672,0,2.1347656,0.4091797,2.9521484,1.2265627
		S21.3647461,5.8139687,21.3647461,6.9643593z M17.1860352,4.6430702H5.1147456
		c-0.6386719,0-1.1855466,0.2275391-1.6396482,0.6816406C3.0200193,5.779789,2.7934568,6.326664,2.7934568,6.9643593v12.0712891
		c0,0.6386719,0.2265625,1.1855469,0.6816406,1.6396484c0.4541016,0.4550781,1.0009763,0.6826172,1.6396482,0.6826172h12.0712891
		c0.6386719,0,1.1845703-0.2275391,1.6396484-0.6826172c0.4541016-0.4541016,0.6816406-1.0009766,0.6816406-1.6396484V6.9643593
		c0-0.6376953-0.2275391-1.1845703-0.6816406-1.6396484C18.3706055,4.8706093,17.824707,4.6430702,17.1860352,4.6430702z"/>
</g>
</svg>
