<?xml version="1.0" encoding="iso-8859-1"?>
<!-- Generator: Adobe Illustrator 17.1.0, SVG Export Plug-In . SVG Version: 6.00 Build 0)  -->
<!DOCTYPE svg PUBLIC "-//W3C//DTD SVG 1.1//EN" "http://www.w3.org/Graphics/SVG/1.1/DTD/svg11.dtd">
<svg version="1.1" id="Layer_1" xmlns="http://www.w3.org/2000/svg" xmlns:xlink="http://www.w3.org/1999/xlink" x="0px" y="0px"
	 viewBox="0 0 32 32" style="enable-background:new 0 0 32 32;" xml:space="preserve">
<rect y="2" width="30" height="4"/>
<polyline points="10,16 12,16 12,18 14,18 14,20 12,20 12,22 10,22 10,20 8,20 8,18 10,18 "/>
<rect x="8" y="8" width="6" height="6"/>
<rect y="8" width="6" height="6"/>
<rect x="16" y="8" width="6" height="6"/>
<rect x="24" y="8" width="6" height="6"/>
<rect x="16" y="16" width="6" height="6"/>
<rect x="24" y="16" width="6" height="6"/>
<rect x="24" y="24" width="6" height="6"/>
<rect x="16" y="24" width="6" height="6"/>
<rect x="8" y="24" width="6" height="6"/>
<rect y="16" width="6" height="6"/>
<rect y="24" width="6" height="6"/>
</svg>
